<svg width="50" height="50" viewBox="0 0 50 50" fill="none" xmlns="http://www.w3.org/2000/svg">
<path d="M49.7561 14.7577C49.7256 12.6594 49.3375 10.5777 48.5946 8.61515C47.2946 5.26389 44.6474 2.61393 41.2962 1.31667C39.3586 0.587649 37.3101 0.196807 35.2367 0.152456C32.5701 0.0332633 31.7247 0 24.9557 0C18.1866 0 17.319 1.85872e-07 14.6718 0.152456C12.6012 0.196807 10.5527 0.587649 8.61515 1.31667C5.26389 2.61393 2.61393 5.26389 1.31666 8.61515C0.587648 10.5527 0.194035 12.6012 0.155228 14.6718C0.036035 17.3412 0 18.1866 0 24.9557C0 31.7247 -2.06525e-08 32.5895 0.155228 35.2395C0.196807 37.3129 0.587648 39.3586 1.31666 41.3017C2.6167 44.6502 5.26389 47.3002 8.61792 48.5974C10.5472 49.3514 12.5956 49.7782 14.6746 49.8448C17.3439 49.964 18.1894 50 24.9584 50C31.7275 50 32.5951 50 35.2423 49.8448C37.3129 49.8032 39.3614 49.4124 41.3017 48.6833C44.653 47.3833 47.3002 44.7333 48.6002 41.3849C49.3292 39.4445 49.72 37.3988 49.7616 35.3227C49.8808 32.6561 49.9168 31.8106 49.9168 25.0388C49.9113 18.2698 49.9113 17.4105 49.7561 14.7577ZM24.939 37.7564C17.8595 37.7564 12.1244 32.0213 12.1244 24.9418C12.1244 17.8623 17.8595 12.1272 24.939 12.1272C32.013 12.1272 37.7536 17.8623 37.7536 24.9418C37.7536 32.0213 32.013 37.7564 24.939 37.7564ZM38.2637 14.6413C36.6088 14.6413 35.2755 13.3052 35.2755 11.6532C35.2755 10.0011 36.6088 8.66504 38.2637 8.66504C39.913 8.66504 41.249 10.0011 41.249 11.6532C41.249 13.3052 39.913 14.6413 38.2637 14.6413Z" fill="#0055FB"/>
<path d="M24.9391 33.2664C29.5364 33.2664 33.2632 29.5395 33.2632 24.9423C33.2632 20.345 29.5364 16.6182 24.9391 16.6182C20.3418 16.6182 16.615 20.345 16.615 24.9423C16.615 29.5395 20.3418 33.2664 24.9391 33.2664Z" fill="#0055FB"/>
</svg>
