<svg width="50" height="50" viewBox="0 0 50 50" fill="none" xmlns="http://www.w3.org/2000/svg">
<path d="M37.5149 0C39.2274 0 40.8403 0.328554 42.3536 0.985663C43.867 1.64277 45.1912 2.53883 46.3262 3.67384C47.4612 4.80884 48.3572 6.13301 49.0143 7.64636C49.6714 9.1597 50 10.7726 50 12.4851V37.4552C50 39.1677 49.6714 40.7905 49.0143 42.3238C48.3572 43.857 47.4612 45.1912 46.3262 46.3262C45.1912 47.4612 43.867 48.3572 42.3536 49.0143C40.8403 49.6714 39.2274 50 37.5149 50H12.4851C10.7726 50 9.1597 49.6714 7.64636 49.0143C6.13301 48.3572 4.80884 47.4612 3.67384 46.3262C2.53883 45.1912 1.64277 43.857 0.985663 42.3238C0.328554 40.7905 0 39.1677 0 37.4552V12.4851C0 10.7726 0.328554 9.1597 0.985663 7.64636C1.64277 6.13301 2.53883 4.80884 3.67384 3.67384C4.80884 2.53883 6.13301 1.64277 7.64636 0.985663C9.1597 0.328554 10.7726 0 12.4851 0H37.5149ZM17.2043 18.7575H10.9319V39.0681H17.2043V18.7575ZM14.098 17.1446C14.9343 17.1446 15.6611 16.8459 16.2784 16.2485C16.8957 15.6511 17.2043 14.9144 17.2043 14.0382C17.2043 13.1621 16.8957 12.4253 16.2784 11.828C15.6611 11.2306 14.9343 10.9319 14.098 10.9319C13.2218 10.9319 12.4751 11.2306 11.8578 11.828C11.2405 12.4253 10.9319 13.1621 10.9319 14.0382C10.9319 14.9144 11.2405 15.6511 11.8578 16.2485C12.4751 16.8459 13.2218 17.1446 14.098 17.1446ZM39.0681 27.2999C39.0681 25.8662 38.6699 24.4624 37.8734 23.0884C37.0769 21.7145 36.0414 20.6691 34.767 19.9522C33.6121 19.315 32.268 18.9765 30.7348 18.9367C29.2015 18.8969 27.8176 19.1557 26.583 19.7133V18.7575H20.3106V39.0681H26.583V26.6428L29.1517 25.3883C29.4703 25.229 29.9084 25.1493 30.466 25.1493C31.0235 25.1493 31.4417 25.2489 31.7204 25.448C31.9594 25.5675 32.1983 25.8264 32.4373 26.2246C32.6762 26.6229 32.7957 26.9813 32.7957 27.2999V39.0681H39.0681V27.2999Z" fill="#0055FB"/>
</svg>
