<svg width="247" height="45" viewBox="0 0 247 45" fill="none" xmlns="http://www.w3.org/2000/svg">
<path d="M56.1643 12.8562C56.1643 15.1971 55.5374 17.3931 54.4414 19.2843C53.3142 21.2332 51.6901 22.8575 49.7434 23.9876C47.8526 25.0847 45.6591 25.7141 43.3224 25.7141C40.9857 25.7141 38.7906 25.0864 36.8998 23.9876V30.9857C36.8998 31.6249 36.3831 32.1422 35.7446 32.1422H31.6324C30.9939 32.1422 30.4772 31.6249 30.4772 30.9857V14.0127C30.4772 13.3735 30.9939 12.8562 31.6324 12.8562H35.7446C36.3831 12.8562 36.8998 13.3735 36.8998 14.0127C36.8998 15.3289 37.3836 16.6057 38.2804 17.5677C38.9765 18.3123 39.8338 18.9038 40.7981 19.2843C41.5798 19.594 42.4322 19.7637 43.3224 19.7637C44.2127 19.7637 45.0651 19.594 45.8467 19.2843C47.6239 18.5825 49.0424 17.1625 49.7434 15.3833C50.0527 14.6008 50.2222 13.7474 50.2222 12.8562C50.2222 11.965 50.0527 11.1116 49.7434 10.3291C49.7187 10.2649 49.6924 10.2023 49.666 10.1397C48.6902 7.86627 46.4161 6.4281 43.9461 6.4281H14.4232C12.6871 6.4281 11.2719 7.80696 11.2127 9.53178C11.2127 9.56802 11.211 9.60426 11.211 9.64215C11.211 9.68004 11.211 9.71628 11.2127 9.75253V35.2458C11.2127 35.2821 11.211 35.32 11.211 35.3562C11.211 35.3924 11.211 35.4303 11.2127 35.4666C11.2719 37.1914 12.6855 38.5703 14.4232 38.5703H42.1672C42.8057 38.5703 43.3224 39.0875 43.3224 39.7267V43.8435C43.3224 44.4827 42.8057 45 42.1672 45H1.1567C0.128224 45 -0.386835 43.7546 0.340501 43.0264L4.79008 37.5785V9.64215C4.79008 8.51534 4.98426 7.43301 5.33805 6.4281C6.30564 3.6885 8.47448 1.5156 11.2127 0.54858C12.2165 0.192744 13.2976 0 14.4232 0H43.3208C45.6591 0 47.8526 0.627654 49.7417 1.72646C51.6884 2.85492 53.3109 4.48254 54.4398 6.42975C55.5357 8.32259 56.1627 10.5186 56.1627 12.8578L56.1643 12.8562Z" fill="#0055FB"/>
<path d="M22.8994 12.8561H18.7888C18.1509 12.8561 17.6337 13.3738 17.6337 14.0125V30.9856C17.6337 31.6243 18.1509 32.142 18.7888 32.142H22.8994C23.5374 32.142 24.0546 31.6243 24.0546 30.9856V14.0125C24.0546 13.3738 23.5374 12.8561 22.8994 12.8561Z" fill="#0055FB"/>
<path d="M221.548 27.7649C221.548 27.7649 221.548 27.7616 221.548 27.7599C221.548 27.5359 221.365 27.353 221.141 27.353C221.141 27.353 221.14 27.353 221.138 27.353H217.128C217.128 27.353 217.126 27.353 217.124 27.353C216.899 27.353 216.718 27.5359 216.718 27.7599C216.718 27.7616 216.718 27.7632 216.718 27.7649V31.7499C216.718 31.7499 216.718 31.7532 216.718 31.7548C216.718 31.9789 216.901 32.1617 217.124 32.1617H221.141C221.365 32.1617 221.548 31.9789 221.548 31.7548C221.548 31.7532 221.548 31.7515 221.548 31.7499V27.7649Z" fill="white"/>
<path d="M224.857 17.5659V31.7614C224.857 31.9838 225.036 32.1634 225.258 32.1634H228.842C229.065 32.1634 229.244 31.9838 229.244 31.7614V17.5659C229.244 17.3435 229.065 17.1639 228.842 17.1639H225.258C225.036 17.1639 224.857 17.3435 224.857 17.5659Z" fill="white"/>
<path d="M239.68 16.9218C234.477 16.9218 232.663 18.1738 232.617 21.658C232.617 21.8821 232.8 22.065 233.025 22.065H236.504C236.708 22.065 236.876 21.9167 236.906 21.7206V21.7174C236.906 21.6976 236.909 21.6778 236.911 21.658V21.6548C237.009 20.5131 237.663 20.1359 239.759 20.1359C241.981 20.1359 242.622 20.6449 242.622 22.3055V23.083H238.93C233.819 23.083 232.027 24.0204 232.027 27.6084C232.027 30.9312 233.578 32.3776 237.673 32.3776C241.284 32.3776 241.981 31.6 242.568 30.2343H242.622V31.7598C242.622 31.9822 242.802 32.1618 243.024 32.1618H246.527C246.749 32.1618 246.929 31.9822 246.929 31.7598V22.0369C246.929 18.3402 245.082 16.9202 239.678 16.9202L239.68 16.9218ZM242.677 26.9132C242.677 28.7616 241.525 29.0565 239.224 29.0565C236.924 29.0565 236.361 28.6281 236.361 27.4503C236.361 26.0582 237.003 25.7353 239.331 25.7353H242.677V26.9132Z" fill="white"/>
<path d="M97.1273 16.9218C90.7853 16.9218 88.9933 18.7981 88.9933 24.6628C88.9933 30.5275 90.7853 32.4055 97.1273 32.4055C103.469 32.4055 105.26 30.5292 105.26 24.6628C105.26 18.7965 103.468 16.9218 97.1273 16.9218ZM97.1273 28.6544C93.8362 28.6544 93.4346 27.9856 93.4346 24.6628C93.4346 21.34 93.8362 20.6729 97.1273 20.6729C100.418 20.6729 100.818 21.3417 100.818 24.6628C100.818 27.9839 100.417 28.6544 97.1273 28.6544Z" fill="white"/>
<path d="M123.909 28.5474V22.7074C123.909 18.6368 122.41 16.9482 118.343 16.9482C115.696 16.9482 114.356 17.6714 113.741 19.3056H113.686V17.566C113.686 17.3436 113.507 17.164 113.285 17.164H107.721C107.499 17.164 107.32 17.3436 107.32 17.566V20.3764C107.32 20.5988 107.499 20.7784 107.721 20.7784H109.327V28.5458L107.652 31.5638C107.502 31.8323 107.697 32.1618 108.004 32.1618H115.321C115.543 32.1618 115.722 31.9822 115.722 31.7598V28.9494C115.722 28.727 115.543 28.5474 115.321 28.5474H113.714V23.9133C113.714 21.182 114.116 20.6729 116.711 20.6729C118.824 20.6729 119.52 21.154 119.52 23.6465V31.7615C119.52 31.9839 119.699 32.1634 119.921 32.1634H125.511C125.734 32.1634 125.913 31.9839 125.913 31.7615V28.951C125.913 28.7286 125.734 28.5491 125.511 28.5491H123.907L123.909 28.5474Z" fill="white"/>
<path d="M137.312 17.5659V20.3763C137.312 20.5987 137.491 20.7783 137.713 20.7783H138.783L136 28.5457H135.946L133.218 20.7783H134.314C134.536 20.7783 134.715 20.5987 134.715 20.3763V17.5659C134.715 17.3435 134.536 17.1639 134.314 17.1639H126.825C126.602 17.1639 126.423 17.3435 126.423 17.5659V20.3763C126.423 20.5987 126.602 20.7783 126.825 20.7783H128.51L132.824 31.9048C132.884 32.0596 133.033 32.1617 133.199 32.1617H138.48C138.646 32.1617 138.794 32.0596 138.855 31.9048L143.17 20.7783H144.829C145.051 20.7783 145.23 20.5987 145.23 20.3763V17.5659C145.23 17.3435 145.051 17.1639 144.829 17.1639H137.713C137.491 17.1639 137.312 17.3435 137.312 17.5659Z" fill="white"/>
<path d="M176.698 17.0289C173.996 17.0289 172.229 17.9662 171.427 19.8146H171.373V17.5659C171.373 17.3435 171.194 17.164 170.972 17.164H165.434C165.212 17.164 165.033 17.3435 165.033 17.5659V20.3764C165.033 20.5988 165.212 20.7783 165.434 20.7783H167.039V28.5457L165.363 31.5638C165.215 31.8323 165.408 32.1618 165.716 32.1618H174.745C174.967 32.1618 175.146 31.9822 175.146 31.7598V28.9494C175.146 28.727 174.967 28.5474 174.745 28.5474H171.401V25.7353C171.401 21.6646 172.097 20.9134 176.619 20.9134H178.01C178.232 20.9134 178.411 20.7338 178.411 20.5114V17.4325C178.411 17.2101 178.232 17.0305 178.01 17.0305H176.698V17.0289Z" fill="white"/>
<path d="M213.537 25.8967C213.761 25.8967 213.944 25.7139 213.944 25.4882V24.5574C213.944 18.584 212.499 16.9218 206.425 16.9218C200.351 16.9218 198.317 18.691 198.317 24.6892C198.317 30.6873 200.137 32.4039 206.29 32.4039C211.91 32.4039 213.888 31.0481 213.94 27.7484C213.94 27.5243 213.758 27.3415 213.532 27.3415H209.993C209.797 27.3415 209.636 27.4782 209.594 27.6611C209.591 27.6858 209.589 27.7088 209.586 27.7303C209.451 28.6808 208.653 29.0284 206.316 29.0284C203.266 29.0284 202.65 28.4666 202.65 26.2427V25.8951H213.536L213.537 25.8967ZM206.238 20.2989C209.101 20.2989 209.636 20.915 209.636 22.8705V23.0583H202.652C202.652 20.8887 203.241 20.2989 206.238 20.2989Z" fill="white"/>
<path d="M194.679 23.994C193.69 23.2972 191.951 23.1374 188.472 22.8969C186.547 22.7634 185.877 22.7091 185.475 22.5756C185.074 22.4422 184.86 22.1473 184.86 21.4785C184.86 20.9167 184.993 20.6218 185.341 20.406C185.77 20.1392 186.733 20.0848 187.937 20.0848C189.249 20.0848 190.159 20.1919 190.585 20.5395C190.858 20.7536 190.947 21.0535 190.973 21.3879V21.3912C190.973 21.4093 190.973 21.4291 190.977 21.4455C191.003 21.6449 191.174 21.7964 191.38 21.7964H194.886C195.11 21.7964 195.291 21.6152 195.293 21.3912V21.3879C195.276 20.0716 195.031 19.1491 194.411 18.5033C193.313 17.3518 191.414 16.9235 187.936 16.9235C185.072 16.9235 183.359 17.192 182.102 18.0766C181.031 18.8262 180.577 20.0321 180.577 21.8261C180.577 23.7288 181.031 24.6135 181.888 25.2296C182.824 25.8984 184.644 26.0862 187.267 26.246C190.264 26.4338 190.638 26.5145 190.906 26.5953C191.36 26.7287 191.602 27.0236 191.602 27.7995C191.602 28.2015 191.548 28.5771 191.146 28.8439C190.745 29.1108 189.943 29.2459 188.176 29.2459C186.705 29.2459 185.903 29.1388 185.474 28.8439C185.112 28.5952 185.018 28.2295 184.998 27.7814V27.7781C184.998 27.7649 184.998 27.7501 184.995 27.7369C184.975 27.5326 184.802 27.3712 184.592 27.3712H181.011C180.786 27.3712 180.603 27.554 180.603 27.7781V27.7995C180.603 29.3003 180.871 30.1833 181.459 30.8274C182.528 32.0053 184.348 32.4072 188.174 32.4072C191.306 32.4072 193.205 32.086 194.355 31.3084C195.505 30.5309 195.987 29.4074 195.987 27.4519C195.987 25.8721 195.666 24.6925 194.676 23.9957L194.679 23.994Z" fill="white"/>
<path d="M162.058 25.8967C162.281 25.8967 162.464 25.7139 162.464 25.4898V24.5574C162.464 18.584 161.019 16.9218 154.945 16.9218C148.872 16.9218 146.839 18.691 146.839 24.6892C146.839 30.6873 148.658 32.4039 154.812 32.4039C160.432 32.4039 162.41 31.0497 162.462 27.75C162.462 27.5243 162.28 27.3415 162.056 27.3415H158.534C158.534 27.3415 158.52 27.3415 158.513 27.3415C158.506 27.3415 158.5 27.3415 158.493 27.3415C158.307 27.3497 158.154 27.4831 158.115 27.6578C158.115 27.6578 158.115 27.6611 158.115 27.6644C158.115 27.6874 158.112 27.7105 158.108 27.7319C158.108 27.7319 158.108 27.733 158.108 27.7352C158.108 27.7352 158.108 27.7434 158.108 27.7467C157.965 28.6841 157.164 29.0284 154.84 29.0284C151.789 29.0284 151.174 28.4666 151.174 26.2427V25.8951H162.059L162.058 25.8967ZM154.758 20.2989C157.621 20.2989 158.156 20.915 158.156 22.8705V23.0583H151.172C151.172 20.8887 151.761 20.2989 154.758 20.2989Z" fill="white"/>
<path d="M86.5052 26.396V26.3927C86.4838 26.1868 86.311 26.0286 86.102 26.0286H82.5706C82.3452 26.0286 82.1625 26.2115 82.1625 26.4372C82.0687 28.4371 81.1258 28.6546 78.7184 28.6546C75.7235 28.6546 75.187 28.1192 75.187 24.6629C75.187 21.2067 75.7235 20.673 78.7184 20.673C80.9366 20.673 82.0391 20.8641 82.1609 22.6778C82.1609 22.691 82.1609 22.7058 82.1642 22.719C82.1839 22.9233 82.3567 23.0847 82.569 23.0847H86.1003C86.3176 23.0847 86.4936 22.9151 86.5052 22.6993C86.5052 22.6927 86.5052 22.6844 86.5052 22.6778C86.5052 22.6663 86.5051 22.6564 86.5019 22.6465C86.5019 22.6465 86.5019 22.6454 86.5019 22.6432C86.5019 22.6432 86.5019 22.6383 86.5019 22.635C86.4327 17.9416 83.6337 16.9219 78.7167 16.9219C72.7236 16.9219 70.744 18.7702 70.744 24.6629C70.744 30.5556 72.7236 32.4057 78.7167 32.4057C83.7176 32.4057 86.4443 31.4353 86.5019 26.4915C86.5019 26.4915 86.5019 26.4915 86.5019 26.4882C86.5051 26.4701 86.5052 26.4553 86.5052 26.4388C86.5052 26.4256 86.5051 26.4108 86.5019 26.3976L86.5052 26.396Z" fill="white"/>
</svg>
