<svg width="43" height="46" viewBox="0 0 43 46" fill="none" xmlns="http://www.w3.org/2000/svg">
<path d="M29.8364 2.18386C26.9272 -0.725382 21.8439 -0.730523 18.9295 2.18386L13.4773 7.63605C10.4701 10.6432 10.4701 15.5356 13.4773 18.543L17.1122 22.1779L0.753015 38.537C-0.251005 39.5411 -0.251005 41.1676 0.753015 42.1719C1.25503 42.6739 1.91281 42.9251 2.57033 42.9251C3.22785 42.9251 3.88563 42.6739 4.38764 42.1719L20.7468 25.8128L24.3817 29.4477C25.8854 30.9514 27.8608 31.7043 29.8339 31.7043C31.8095 31.7043 33.7849 30.9511 35.2886 29.4477L40.7408 23.9955C42.1967 22.5396 43 20.6017 43 18.5433C43 16.4823 42.1967 14.5444 40.7408 13.0911L29.8364 2.18386ZM37.1059 20.3603L31.6537 25.8125C30.6497 26.814 29.0206 26.8191 28.0166 25.8125L17.1122 14.9081C16.1107 13.9041 16.1107 12.275 17.1122 11.2709L22.5644 5.81874C23.0515 5.33421 23.6964 5.0656 24.3817 5.0656C25.0695 5.0656 25.7147 5.33164 26.199 5.81874L37.1059 16.728C37.593 17.21 37.8591 17.8552 37.8591 18.543C37.8591 19.2283 37.5905 19.8735 37.1059 20.3603ZM39.8697 40.3266H29.5879C28.1672 40.3266 27.0174 41.4764 27.0174 42.897C27.0174 44.3177 28.1672 45.4675 29.5879 45.4675H39.8697C41.2904 45.4675 42.4402 44.3177 42.4402 42.897C42.4402 41.4764 41.2904 40.3266 39.8697 40.3266Z" fill="#0055FB"/>
</svg>
