<svg width="34" height="44" viewBox="0 0 34 44" fill="none" xmlns="http://www.w3.org/2000/svg">
<path d="M17 19.4286C18.9213 19.4286 20.7995 18.8588 22.397 17.7914C23.9945 16.724 25.2396 15.2068 25.9748 13.4318C26.7101 11.6567 26.9025 9.70351 26.5276 7.81913C26.1528 5.93474 25.2276 4.20382 23.869 2.84525C22.5105 1.48668 20.7796 0.561489 18.8952 0.186662C17.0108 -0.188166 15.0576 0.00420902 13.2825 0.73946C11.5074 1.47471 9.99029 2.71982 8.92287 4.31732C7.85545 5.91483 7.28571 7.79299 7.28571 9.71429C7.28571 12.2907 8.30918 14.7615 10.131 16.5833C11.9527 18.4051 14.4236 19.4286 17 19.4286ZM17 4.85715C17.9607 4.85715 18.8997 5.14201 19.6985 5.67572C20.4972 6.20943 21.1198 6.96801 21.4874 7.85554C21.855 8.74307 21.9512 9.71968 21.7638 10.6619C21.5764 11.6041 21.1138 12.4695 20.4345 13.1488C19.7552 13.8281 18.8898 14.2907 17.9476 14.4781C17.0054 14.6655 16.0288 14.5693 15.1413 14.2017C14.2537 13.8341 13.4951 13.2115 12.9614 12.4128C12.4277 11.614 12.1429 10.6749 12.1429 9.71429C12.1429 8.4261 12.6546 7.19066 13.5655 6.27977C14.4764 5.36888 15.7118 4.85715 17 4.85715ZM17 24.2857C12.4913 24.2857 8.1673 26.0768 4.97918 29.2649C1.79107 32.453 0 36.777 0 41.2857C0 41.9298 0.255867 42.5475 0.711313 43.003C1.16676 43.4584 1.78447 43.7143 2.42857 43.7143C3.07267 43.7143 3.69038 43.4584 4.14583 43.003C4.60128 42.5475 4.85714 41.9298 4.85714 41.2857C4.85714 38.0652 6.13648 34.9767 8.4137 32.6994C10.6909 30.4222 13.7795 29.1429 17 29.1429C20.2205 29.1429 23.3091 30.4222 25.5863 32.6994C27.8635 34.9767 29.1429 38.0652 29.1429 41.2857C29.1429 41.9298 29.3987 42.5475 29.8542 43.003C30.3096 43.4584 30.9273 43.7143 31.5714 43.7143C32.2155 43.7143 32.8332 43.4584 33.2887 43.003C33.7441 42.5475 34 41.9298 34 41.2857C34 36.777 32.2089 32.453 29.0208 29.2649C25.8327 26.0768 21.5087 24.2857 17 24.2857Z" fill="#0055FB"/>
</svg>
