<svg width="10" height="10" viewBox="0 0 10 10" fill="none" xmlns="http://www.w3.org/2000/svg">
<path fill-rule="evenodd" clip-rule="evenodd" d="M5 10C7.7615 10 10 7.7615 10 5C10 2.2385 7.7615 0 5 0C2.2385 0 0 2.2385 0 5C0 7.7615 2.2385 10 5 10ZM6.768 3.232C6.86189 3.13825 6.98917 3.08563 7.12185 3.08572C7.25454 3.08582 7.38175 3.13861 7.4755 3.2325C7.56925 3.32639 7.62187 3.45367 7.62178 3.58635C7.62168 3.71904 7.56889 3.84625 7.475 3.94L4.6485 6.7665L4.6465 6.7685C4.60017 6.81509 4.54509 6.85207 4.48443 6.8773C4.42376 6.90253 4.3587 6.91552 4.293 6.91552C4.2273 6.91552 4.16224 6.90253 4.10157 6.8773C4.04091 6.85207 3.98583 6.81509 3.9395 6.7685L3.9375 6.7665L2.525 5.354C2.47725 5.30788 2.43915 5.2527 2.41295 5.1917C2.38674 5.1307 2.37295 5.06509 2.37237 4.9987C2.3718 4.93231 2.38445 4.86647 2.40959 4.80502C2.43473 4.74358 2.47186 4.68775 2.5188 4.6408C2.56575 4.59386 2.62157 4.55673 2.68302 4.53159C2.74447 4.50645 2.81031 4.4938 2.8767 4.49437C2.94309 4.49495 3.0087 4.50874 3.0697 4.53495C3.1307 4.56115 3.18588 4.59924 3.232 4.647L4.293 5.7075L6.768 3.2325V3.232Z" fill="white"/>
</svg>
